<svg width="418" height="312" viewBox="0 0 418 312" fill="none" xmlns="http://www.w3.org/2000/svg">
<path d="M-71.9448 84C-66.7726 84 -61.8706 85.1568 -57.4834 87.2258C-54.7974 84.8228 -51.9853 82.5581 -49.058 80.4427C-49.602 78.0304 -49.889 75.5209 -49.889 72.9443C-49.889 54.1974 -34.6917 39 -15.9448 39C-3.31113 39 7.71048 45.9018 13.5552 56.1407C19.4 45.9018 30.4216 39 43.0552 39C55.6099 39 66.5726 45.8158 72.445 55.949C76.5396 53.9873 81.1389 52.8867 85.9995 52.8867C96.3689 52.8867 105.549 57.8958 111.177 65.5887C118.77 66.2656 125.493 69.9619 130.139 75.4684C133.741 73.8121 137.76 72.8867 142 72.8867C157.463 72.8867 170 85.1989 170 100.387C170 103.706 169.401 106.888 168.303 109.834C177.833 112.054 184.933 120.602 184.933 130.808C184.933 141.652 176.917 150.625 166.487 152.123C165.617 157.792 163.665 163.109 160.846 167.864C171.426 170.559 180.953 175.89 188.687 183.117C195.116 174.204 205.59 168.402 217.419 168.402C228.602 168.402 238.573 173.587 245.062 181.683C245.932 181.59 246.816 181.543 247.711 181.543C252.549 181.543 257.064 182.927 260.881 185.321C265.251 178.235 273.085 173.512 282.022 173.512C291.998 173.512 300.6 179.398 304.543 187.887C315.051 190.037 323.139 198.827 324.234 209.681C326.579 208.947 329.074 208.551 331.661 208.551C337.78 208.551 343.383 210.766 347.71 214.437C348.196 214.409 348.686 214.395 349.18 214.395C362.887 214.395 374 225.507 374 239.214C374 252.921 362.887 264.033 349.18 264.033C348.683 264.033 348.189 264.019 347.7 263.99C343.147 269.373 336.343 272.791 328.741 272.791C325.082 272.791 321.607 271.999 318.48 270.578C318.079 277.617 314.745 283.871 309.68 288.136C309.891 289.69 310 291.276 310 292.887C310 312.217 294.329 327.887 275 327.887C265.821 327.887 257.467 324.354 251.225 318.573C248.206 331.366 236.715 340.887 223 340.887C216.088 340.887 209.741 338.469 204.758 334.432C203.301 334.699 201.799 334.838 200.264 334.838C193.736 334.838 187.797 332.318 183.366 328.197C175.082 335.941 163.954 340.681 151.72 340.681C136.634 340.681 123.231 333.474 114.766 322.315C109.815 326.053 103.652 328.269 96.9703 328.269C91.1864 328.269 85.7905 326.608 81.2334 323.738C73.9484 345.892 53.0918 361.887 28.4995 361.887C5.06998 361.887 -14.9687 347.369 -23.111 326.838C-31.1481 333.713 -41.5839 337.865 -52.9895 337.865C-78.3885 337.865 -98.9785 317.275 -98.9785 291.876C-98.9785 288.152 -98.5359 284.532 -97.7005 281.064C-118.934 276.993 -134.979 258.32 -134.979 235.899C-134.979 221.99 -128.804 209.524 -119.047 201.091C-130.521 192.728 -137.979 179.185 -137.979 163.899C-137.979 143.322 -124.464 125.901 -105.826 120.028C-105.868 119.339 -105.889 118.644 -105.889 117.944C-105.889 99.1974 -90.6917 84 -71.9448 84Z" fill="white"/>
</svg>
