<svg width="426" height="285" viewBox="0 0 426 285" fill="none" xmlns="http://www.w3.org/2000/svg">
<path d="M-89.1249 -108.629C-91.7434 -110.81 -95.1109 -112.121 -98.7847 -112.121C-107.127 -112.121 -113.891 -105.358 -113.891 -97.0152C-113.891 -95.3885 -113.634 -93.8219 -113.158 -92.3537C-115.182 -92.7757 -117.279 -92.9975 -119.429 -92.9975C-136.313 -92.9975 -150 -79.3102 -150 -62.4261C-150 -60.3179 -149.787 -58.2595 -149.38 -56.2714C-164.717 -38.5994 -174 -15.5312 -174 9.70509C-174 40.0037 -160.62 67.1771 -139.446 85.6389C-143.045 95.9961 -145 107.122 -145 118.705C-145 135.993 -140.644 152.264 -132.969 166.48C-140.319 174.326 -144.82 184.874 -144.82 196.473C-144.82 220.707 -125.175 240.352 -100.941 240.352C-85.7805 240.352 -72.4155 232.663 -64.5331 220.972C-58.6323 230.855 -47.8313 237.473 -35.4846 237.473C-32.1416 237.473 -28.912 236.988 -25.8623 236.085C-19.3408 239.719 -11.8286 241.79 -3.83275 241.79C10.5566 241.79 23.3796 235.083 31.681 224.626C35.8952 226.858 40.7008 228.122 45.8016 228.122C60.8508 228.122 73.33 217.119 75.6329 202.718C79.1753 200.737 82.2778 198.063 84.7569 194.88C85.5437 194.983 86.3463 195.036 87.1612 195.036C97.2917 195.036 105.504 186.824 105.504 176.693C105.504 166.563 97.2917 158.35 87.1612 158.35C86.519 158.35 85.8844 158.383 85.2591 158.448C79.7595 150.972 70.8998 146.12 60.9071 146.12C60.181 146.12 59.4609 146.146 58.7477 146.196L58.7477 146.121C58.7477 141.754 57.8213 137.604 56.1541 133.856C58.4553 131.743 60.4279 129.279 61.9868 126.547C65.034 127.581 68.2996 128.141 71.6961 128.141C83.188 128.141 93.1813 121.725 98.289 112.28C105.211 121.887 116.496 128.141 129.242 128.141C141.153 128.141 151.788 122.679 158.779 114.123C163.457 117.922 169.415 120.206 175.906 120.227C179.697 143.875 200.194 161.942 224.911 161.942C233.762 161.942 242.072 159.625 249.267 155.565C257.402 161.394 267.372 164.825 278.143 164.825C298.907 164.825 316.692 152.076 324.098 133.978C330.104 138.872 337.769 141.806 346.12 141.806C362.138 141.806 375.634 131.011 379.731 116.299C391.516 114.388 400.596 104.412 401.124 92.2171C412.034 89.312 420.072 79.3641 420.072 67.5389C420.072 53.4357 408.639 42.0028 394.536 42.0028C392.699 42.0028 390.907 42.1967 389.18 42.5653C383.957 29.8837 371.475 20.9565 356.909 20.9565C352.164 20.9565 347.641 21.9036 343.518 23.6189C336.386 11.1954 324.035 2.15031 309.455 -0.524269C310.461 -4.00863 311 -7.69097 311 -11.4992C311 -33.3144 293.315 -50.9992 271.5 -50.9992C262.972 -50.9992 255.075 -48.2967 248.62 -43.7014C246.641 -46.9559 243.468 -49.4037 239.709 -50.4354C238.296 -57.3126 232.208 -62.4844 224.913 -62.4844C221.873 -62.4844 219.043 -61.5867 216.674 -60.0421C211.333 -69.6499 201.079 -76.151 189.306 -76.151C180.792 -76.151 173.073 -72.7506 167.431 -67.2338C164.685 -70.0717 160.836 -71.8359 156.575 -71.8359C149.214 -71.8359 143.083 -66.5712 141.741 -59.6018C141.674 -59.6031 141.607 -59.6043 141.54 -59.6052C141.48 -59.606 141.421 -59.6066 141.362 -59.6071C122.994 -84.1308 93.7032 -100.001 60.7059 -100.001C37.4982 -100.001 16.1241 -92.1505 -0.905914 -78.9606C-6.62401 -86.4353 -15.6358 -91.2565 -25.7737 -91.2565C-30.2223 -91.2565 -34.4541 -90.3281 -38.286 -88.6546C-43.9226 -102.421 -57.4533 -112.118 -73.249 -112.118C-78.9197 -112.118 -84.2985 -110.869 -89.1249 -108.629Z" fill="white"/>
</svg>
