<svg width="466" height="312" viewBox="0 0 466 312" fill="none" xmlns="http://www.w3.org/2000/svg">
<g clip-path="url(#clip0_5853_155028)">
<path d="M380.271 36.668C385.371 36.668 390.177 37.9321 394.391 40.1641C402.693 29.7064 415.516 23 429.905 23C437.901 23 445.413 25.0708 451.935 28.7054C454.984 27.8016 458.214 27.3164 461.557 27.3164C473.904 27.3164 484.704 33.9349 490.605 43.8175C498.488 32.1264 511.853 24.4375 527.014 24.4375C551.247 24.4375 570.893 44.0828 570.893 68.3165C570.893 79.9161 566.392 90.4644 559.041 98.3102C566.716 112.526 571.072 128.797 571.072 146.085C571.072 157.668 569.117 168.794 565.518 179.151C586.692 197.613 600.072 224.786 600.072 255.085C600.072 280.321 590.79 303.389 575.453 321.061C575.859 323.049 576.072 325.108 576.072 327.216C576.072 344.1 562.385 357.787 545.501 357.787C543.352 357.787 541.254 357.566 539.23 357.144C539.706 358.612 539.963 360.178 539.963 361.805C539.963 370.148 533.2 376.911 524.857 376.911C521.183 376.911 517.816 375.599 515.197 373.419C510.371 375.658 504.992 376.908 499.321 376.908C483.526 376.908 469.995 367.211 464.358 353.444C460.526 355.118 456.295 356.046 451.846 356.046C441.708 356.046 432.696 351.225 426.978 343.751C409.948 356.94 388.574 364.791 365.366 364.791C332.369 364.791 303.078 348.921 284.711 324.397C284.632 324.396 284.553 324.395 284.474 324.394C284.426 324.393 284.379 324.393 284.331 324.392C282.99 331.361 276.858 336.626 269.498 336.626C265.237 336.626 261.388 334.862 258.641 332.024C253 337.54 245.28 340.941 236.766 340.941C224.994 340.941 214.74 334.44 209.398 324.832C207.029 326.377 204.199 327.274 201.16 327.274C193.864 327.274 187.777 322.103 186.363 315.225C182.604 314.194 179.431 311.746 177.453 308.491C170.997 313.087 163.1 315.789 154.572 315.789C132.757 315.789 115.072 298.104 115.072 276.289C115.072 272.481 115.611 268.799 116.617 265.314C102.037 262.64 89.6859 253.595 82.5543 241.171C78.431 242.886 73.9078 243.833 69.1634 243.833C54.597 243.833 42.1156 234.906 36.8919 222.225C35.1649 222.593 33.3731 222.787 31.5361 222.787C17.4329 222.787 6 211.354 6 197.251C6 185.426 14.0378 175.478 24.9481 172.573C25.476 160.378 34.5561 150.402 46.3408 148.491C50.4381 133.779 63.9347 122.984 79.9525 122.984C88.3031 122.984 95.9685 125.918 101.974 130.812C109.38 112.714 127.166 99.9648 147.929 99.9648C158.7 99.9648 168.67 103.396 176.805 109.225C184 105.164 192.31 102.848 201.161 102.848C225.878 102.848 246.375 120.915 250.167 144.563C256.657 144.584 262.615 146.868 267.293 150.667C274.284 142.111 284.92 136.648 296.831 136.648C309.576 136.648 320.861 142.903 327.783 152.51C332.891 143.065 342.884 136.648 354.376 136.648C357.773 136.648 361.038 137.209 364.086 138.242C365.644 135.511 367.617 133.047 369.918 130.934C368.251 127.186 367.325 123.036 367.325 118.669L367.325 118.594C366.611 118.644 365.891 118.67 365.165 118.67C355.172 118.67 346.313 113.818 340.813 106.342C340.188 106.407 339.553 106.44 338.911 106.44C328.781 106.44 320.568 98.2272 320.568 88.0968C320.568 77.9663 328.781 69.7539 338.911 69.7539C339.726 69.7539 340.529 69.8071 341.315 69.9101C343.794 66.7268 346.897 64.0529 350.439 62.0717C352.742 47.6713 365.221 36.668 380.271 36.668Z" fill="white"/>
</g>
<defs>
<clipPath id="clip0_5853_155028">
<rect width="600" height="400" fill="white"/>
</clipPath>
</defs>
</svg>
