<svg width="466" height="301" viewBox="0 0 466 301" fill="none" xmlns="http://www.w3.org/2000/svg">
<path d="M389.5 -59.8867C412.93 -59.8867 432.968 -45.3686 441.111 -24.8378C449.148 -31.7128 459.583 -35.8647 470.989 -35.8647C496.388 -35.8647 516.978 -15.2748 516.978 10.1243C516.978 13.848 516.535 17.4684 515.7 20.9357C536.934 25.0067 552.978 43.6801 552.978 66.1008C552.978 80.0096 546.804 92.4763 537.046 100.909C548.521 109.272 555.978 122.815 555.978 138.101C555.978 158.678 542.463 176.099 523.826 181.972C523.867 182.661 523.889 183.356 523.889 184.056C523.889 202.803 508.691 218 489.944 218C484.772 218 479.87 216.843 475.483 214.774C472.797 217.177 469.985 219.442 467.058 221.557C467.601 223.97 467.889 226.479 467.889 229.056C467.889 247.803 452.691 263 433.944 263C421.311 263 410.289 256.098 404.444 245.859C398.6 256.098 387.578 263 374.944 263C362.39 263 351.427 256.184 345.555 246.051C341.46 248.013 336.861 249.113 332 249.113C321.631 249.113 312.45 244.104 306.823 236.411C299.23 235.734 292.506 232.038 287.86 226.532C284.259 228.188 280.239 229.113 276 229.113C260.536 229.113 248 216.801 248 201.613C248 198.294 248.599 195.112 249.696 192.166C240.166 189.946 233.066 181.398 233.066 171.192C233.066 160.348 241.082 151.375 251.512 149.877C252.383 144.208 254.335 138.891 257.154 134.136C246.573 131.441 237.046 126.11 229.313 118.883C222.883 127.796 212.409 133.598 200.58 133.598C189.398 133.598 179.426 128.413 172.938 120.317C172.067 120.41 171.183 120.457 170.288 120.457C165.45 120.457 160.935 119.073 157.118 116.679C152.748 123.765 144.914 128.488 135.978 128.488C126.001 128.488 117.399 122.602 113.456 114.113C102.949 111.963 94.8603 103.173 93.7652 92.3191C91.4204 93.0534 88.9259 93.4492 86.339 93.4492C80.2193 93.4492 74.617 91.2344 70.2898 87.5626C69.8033 87.5911 69.3131 87.6055 68.8195 87.6055C55.1121 87.6055 44 76.4934 44 62.786C44 49.0786 55.1121 37.9665 68.8195 37.9665C69.3165 37.9665 69.81 37.9811 70.2998 38.01C74.8525 32.6268 81.6566 29.2087 89.2589 29.2087C92.918 29.2087 96.3921 30.0005 99.5193 31.4221C99.9203 24.3828 103.255 18.1288 108.32 13.8635C108.109 12.3102 108 10.7244 108 9.11328C108 -10.2167 123.67 -25.8867 143 -25.8867C152.179 -25.8867 160.532 -22.3535 166.775 -16.5729C169.794 -29.3659 181.285 -38.8867 195 -38.8867C201.912 -38.8867 208.259 -36.4687 213.241 -32.4324C214.699 -32.6989 216.201 -32.8382 217.735 -32.8382C224.263 -32.8382 230.203 -30.3179 234.633 -26.1973C242.918 -33.9408 254.045 -38.6807 266.28 -38.6807C281.366 -38.6807 294.769 -31.474 303.233 -20.3155C308.184 -24.053 314.348 -26.2694 321.029 -26.2694C326.813 -26.2694 332.209 -24.6084 336.766 -21.7376C344.051 -43.8918 364.908 -59.8867 389.5 -59.8867Z" fill="#292929"/>
</svg>
