<svg width="48" height="48" viewBox="0 0 48 48" fill="none" xmlns="http://www.w3.org/2000/svg">
<rect x="12" y="19" width="24" height="16" fill="#FFB380"/>
<rect x="34" y="19" width="2" height="14" fill="#E49967"/>
<rect x="12" y="19" width="22" height="2" fill="#FFD1B2"/>
<rect x="12" y="21" width="16" height="2" fill="#FFD1B2"/>
<rect x="12" y="23" width="12" height="2" fill="#FFD1B2"/>
<rect x="12" y="25" width="8" height="2" fill="#FFD1B2"/>
<rect x="32" y="25" width="2" height="10" fill="#E49967"/>
<rect x="30" y="31" width="2" height="4" fill="#E49967"/>
<rect x="12" y="19" width="4" height="2" fill="white"/>
<rect x="12" y="21" width="2" height="2" fill="white"/>
<rect x="14" y="35" width="20" height="2" fill="#1A1A1A"/>
<rect x="12" y="33" width="2" height="2" fill="#1A1A1A"/>
<rect x="18" y="21" width="2" height="2" fill="#1A1A1A"/>
<rect x="28" y="21" width="2" height="2" fill="#1A1A1A"/>
<rect x="18" y="19" width="2" height="2" fill="#1A1A1A"/>
<rect x="28" y="19" width="2" height="2" fill="#1A1A1A"/>
<rect x="18" y="15" width="2" height="2" fill="#1A1A1A"/>
<rect x="28" y="15" width="2" height="2" fill="#1A1A1A"/>
<rect x="18" y="13" width="2" height="2" fill="#1A1A1A"/>
<rect x="20" y="11" width="2" height="2" fill="#1A1A1A"/>
<rect x="28" y="13" width="2" height="2" fill="#1A1A1A"/>
<rect x="26" y="11" width="2" height="2" fill="#1A1A1A"/>
<rect x="22" y="11" width="2" height="2" fill="#1A1A1A"/>
<rect x="24" y="11" width="2" height="2" fill="#1A1A1A"/>
<rect x="12" y="17" width="24" height="2" fill="#1A1A1A"/>
<rect x="34" y="33" width="2" height="2" fill="#1A1A1A"/>
<rect x="36" y="17" width="2" height="16" fill="#1A1A1A"/>
<rect x="10" y="17" width="2" height="16" fill="#1A1A1A"/>
</svg>
