<svg width="48" height="48" viewBox="0 0 48 48" fill="none" xmlns="http://www.w3.org/2000/svg">
<path fill-rule="evenodd" clip-rule="evenodd" d="M36 12H12V14H10V16H8V18H6V20H8V22H10V24H12V26H14V28H16V30H18V32H20V34H22V36H26V34H28V32H30V30H32V28H34V26H36V24H38V22H40V20H42V18H40V16H38V14H36V12Z" fill="white"/>
<path fill-rule="evenodd" clip-rule="evenodd" d="M36 12H12V14H10V16H8V18H6V20H8V22H10V24H12V26H14V28H16V30H18V32H20V34H22V36H26V34H28V32H30V30H32V28H34V26H36V24H38V22H40V20H42V18H40V16H38V14H36V12ZM36 14V16H38V18H40V20H38V22H36V24H34V26H32V28H30V30H28V32H26V34H22V32H20V30H18V28H16V26H14V24H12V22H10V20H8V18H10V16H12V14H36Z" fill="#1A1A1A"/>
<path fill-rule="evenodd" clip-rule="evenodd" d="M12 14H22V16H20V18H18V20H8V18H10V16H12V14Z" fill="#B2B2FF"/>
<path fill-rule="evenodd" clip-rule="evenodd" d="M24 20H38V22H36V24H34V26H32V28H30V30H28V32H26V34H24V32V30V28V26V24V22V20Z" fill="#B2B2FF"/>
<path fill-rule="evenodd" clip-rule="evenodd" d="M26 14H22V16H20V18H18V20H10V22H12V24H14V26H16V28H18V30H20V32H22V34H24V32V30V28V26V24V22V20H30V18H28V16H26V14Z" fill="#6767E4"/>
<path fill-rule="evenodd" clip-rule="evenodd" d="M26 14H36V16H38V18H40V20H30V18H28V16H26V14Z" fill="white"/>
</svg>
