<svg width="24" height="24" viewBox="0 0 24 24" fill="none" xmlns="http://www.w3.org/2000/svg">
<rect x="14" y="3" width="2" height="2" fill="#1A1A1A"/>
<rect x="16" y="5" width="2" height="2" fill="#1A1A1A"/>
<rect x="18" y="7" width="2" height="2" fill="#1A1A1A"/>
<rect x="20" y="9" width="2" height="2" fill="#1A1A1A"/>
<rect x="22" y="11" width="2" height="2" fill="#1A1A1A"/>
<rect x="12" y="1" width="2" height="2" fill="#1A1A1A"/>
<rect x="10" y="1" width="2" height="2" fill="#1A1A1A"/>
<rect y="11" width="2" height="2" fill="#1A1A1A"/>
<rect x="4" y="7" width="2" height="2" fill="#1A1A1A"/>
<rect x="2" y="9" width="2" height="2" fill="#1A1A1A"/>
<rect x="6" y="5" width="2" height="2" fill="#1A1A1A"/>
<rect x="8" y="3" width="2" height="2" fill="#1A1A1A"/>
<rect y="13" width="2" height="2" fill="#1A1A1A"/>
<rect x="4" y="17" width="2" height="2" fill="#1A1A1A"/>
<rect x="6" y="19" width="2" height="2" fill="#1A1A1A"/>
<rect x="8" y="19" width="2" height="2" fill="#1A1A1A"/>
<rect x="12" y="21" width="2" height="2" fill="#1A1A1A"/>
<rect x="10" y="21" width="2" height="2" fill="#1A1A1A"/>
<rect x="14" y="19" width="2" height="2" fill="#1A1A1A"/>
<rect x="16" y="19" width="2" height="2" fill="#1A1A1A"/>
<rect x="18" y="17" width="2" height="2" fill="#1A1A1A"/>
<path fill-rule="evenodd" clip-rule="evenodd" d="M12 3H14V5H16V7H18V9H20V11V13V15V17H18V19H14V21H12V19V17V15V13V11V9V7V5V3Z" fill="#6767E4"/>
<path fill-rule="evenodd" clip-rule="evenodd" d="M14 3H12V5V7V9V11H20V9H18V7H16V5H14V3Z" fill="#B2B2FF"/>
<path fill-rule="evenodd" clip-rule="evenodd" d="M10 3H12V5V7V9V11V13V15V17V19V21H10V19H6V17H4V15V13V11V9H6V7H8V5H10V3Z" fill="#B2B2FF"/>
<path fill-rule="evenodd" clip-rule="evenodd" d="M10 3H12V5V7V9V11V13H4V11V9H6V7H8V5H10V3Z" fill="white"/>
<rect x="20" y="15" width="2" height="2" fill="#1A1A1A"/>
<rect x="22" y="13" width="2" height="2" fill="#1A1A1A"/>
<rect x="2" y="15" width="2" height="2" fill="#1A1A1A"/>
<path fill-rule="evenodd" clip-rule="evenodd" d="M12 7H14V9H16V11H20V13H18V15H14V17H12V15V13V11V9V7Z" fill="#6767E4"/>
<path fill-rule="evenodd" clip-rule="evenodd" d="M10 7H12V9V11V13V15V17H10V15H6V13H4V11H8V9H10V7Z" fill="#8080FF"/>
<path fill-rule="evenodd" clip-rule="evenodd" d="M6 13H4V15H6V17H10V19H12H14V17H18V15H20V13H18V15H14V17H12H10V15H6V13Z" fill="white"/>
</svg>
