<svg width="24" height="24" viewBox="0 0 24 24" fill="none" xmlns="http://www.w3.org/2000/svg">
<path d="M7.00002 6H5V9.99988H7.00002V6Z" fill="#1A1A1A"/>
<path d="M7.00098 10H9.00083V11.9999H7.00098V10Z" fill="#1A1A1A"/>
<path d="M9 12H10.9999V13.9999H9V12Z" fill="#1A1A1A"/>
<path fill-rule="evenodd" clip-rule="evenodd" d="M17 6H7V10H9V12H11V13.9999H12.9999V12H15V10H17V6Z" fill="#FFE299"/>
<path fill-rule="evenodd" clip-rule="evenodd" d="M7 6H13V10H11V12H9V10H7V6Z" fill="#F5C13D"/>
<path d="M18.9989 6H16.999V9.99988H18.9989V6Z" fill="#1A1A1A"/>
<path d="M15 10H16.9999V11.9999H15V10Z" fill="#1A1A1A"/>
<path d="M13 12H14.9999V13.9999H13V12Z" fill="#1A1A1A"/>
<path d="M11.0009 15.9999H9.00083V17.9999H7.00098V19.9997H17.0007V17.9999H15.0006V15.9999H13.0008V14H11.0009L11.0009 15.9999Z" fill="#1A1A1A"/>
<path d="M19 10H20.9999V11.9999H19V10Z" fill="#1A1A1A"/>
<path d="M20.999 6V9.99988H22.9989V6H20.999Z" fill="#1A1A1A"/>
<path d="M19 4H20.9999V5.99986H19V4Z" fill="#1A1A1A"/>
<path d="M19 6H21V10H19V6Z" fill="#FFE299"/>
<path d="M3.00098 4H5.00083V5.99986H3.00098V4Z" fill="#1A1A1A"/>
<path d="M3 6H5V10H3V6Z" fill="#F5C13D"/>
<path d="M2.99986 6H1V9.99988H2.99986V6Z" fill="#1A1A1A"/>
<path d="M3.00098 10H5.00083V11.9999H3.00098V10Z" fill="#1A1A1A"/>
<path d="M11.0009 5.99986H17.0007V4H7.00098V5.99986H11.0009Z" fill="#1A1A1A"/>
<rect x="11" y="16" width="2" height="2" fill="#F5C13D"/>
</svg>
