<svg width="80" height="80" viewBox="0 0 80 80" fill="none" xmlns="http://www.w3.org/2000/svg">
<rect width="80" height="80" rx="40" fill="#FFC328"/>
<path fill-rule="evenodd" clip-rule="evenodd" d="M28 22H52V24H54V56H52V58H28V56H26V24H28V22ZM28 22H26V24H24V56H26V58H28V60H52V58H54V56H56V24H54V22H52V20H28V22ZM36 32H44V34H36V32ZM34 36V34H36V36H34ZM34 44H32V36H34V44ZM36 46H34V44H36V42H37.9982V44.0003H37.3323H36V46ZM44 46V48H36V46H44ZM46 44V46H44V44H46ZM46 36H48V44H46V36ZM46 36V34H44V36H46ZM43.9982 36V38.0003H42V36H43.9982ZM41.9982 40.0003H41.3323H40V38H41.9982V40.0003ZM39.3323 42.0003H39.9982V40H38V42.0003H39.3323ZM30 25H28V27V53V55H30H50H52V53V27V25H50H30ZM30 27V53H50V27H30Z" fill="black"/>
</svg>
