<svg width="16" height="16" viewBox="0 0 16 16" fill="none" xmlns="http://www.w3.org/2000/svg">
<path d="M7.66682 3.00016H9.00029V1H5V3.00016H7.66682Z" fill="#1A1A1A"/>
<path d="M11 7.66682V9.00029H13.0002V5H11V7.66682Z" fill="#1A1A1A"/>
<path d="M11 11V13.0002H13.0002V11H11Z" fill="#1A1A1A"/>
<path d="M9 9V11.0002H11.0002V9H9Z" fill="#1A1A1A"/>
<path d="M3 3V5.00016H5.00016V3H3Z" fill="#1A1A1A"/>
<path d="M3 9V11.0002H5.00016V9H3Z" fill="#1A1A1A"/>
<path d="M9 3V5.00016H11.0002V3H9Z" fill="#1A1A1A"/>
<path d="M12.999 13V15.0002H14.9992V13H12.999Z" fill="#1A1A1A"/>
<path d="M6.33347 11H5V13.0002H9.00029V11H6.33347Z" fill="#1A1A1A"/>
<path d="M3.00016 6.33347V5H1V9.00029H3.00016V6.33347Z" fill="#1A1A1A"/>
</svg>
