<svg width="16" height="16" viewBox="0 0 16 16" fill="none" xmlns="http://www.w3.org/2000/svg">
<rect width="16" height="16" fill="white"/>
<path d="M7.5 3.5H6.5V4.5H5.5V5.5H4.5V6.5H2.5V9.5H4.5V10.5H5.5V11.5H6.5V12.5H7.5V3.5Z" fill="black"/>
<path d="M12.5 3.5H11.5V4.5H12.5V11.5H11.5V12.5H12.5V11.5H13.5V4.5H12.5V3.5Z" fill="black"/>
<path d="M9.5 4.5H10.5V5.5H9.5V4.5Z" fill="black"/>
<path d="M10.5 10.5V5.5H11.5V10.5H10.5Z" fill="black"/>
<path d="M10.5 10.5V11.5H9.5V10.5H10.5Z" fill="black"/>
<path d="M8.5 6.5H9.5V9.5H8.5V6.5Z" fill="black"/>
</svg>
