<svg width="33" height="32" viewBox="0 0 33 32" fill="none" xmlns="http://www.w3.org/2000/svg">
<path d="M6.5 17.45V26C6.5 26.2652 6.60536 26.5195 6.79289 26.7071C6.98043 26.8946 7.23478 27 7.5 27H25.5C25.7652 27 26.0196 26.8946 26.2071 26.7071C26.3946 26.5195 26.5 26.2652 26.5 26V17.45" stroke="black" stroke-width="2" stroke-linecap="round" stroke-linejoin="round"/>
<path d="M7.25 5H25.75C25.9669 5.00179 26.1776 5.0732 26.3508 5.20373C26.5241 5.33425 26.6509 5.51698 26.7125 5.725L28.5 12H4.5L6.2875 5.725C6.34909 5.51698 6.47587 5.33425 6.64916 5.20373C6.82244 5.0732 7.03306 5.00179 7.25 5V5Z" stroke="black" stroke-width="2" stroke-linecap="round" stroke-linejoin="round"/>
<path d="M12.5 12V14C12.5 15.0609 12.0786 16.0783 11.3284 16.8284C10.5783 17.5786 9.56087 18 8.5 18C7.43913 18 6.42172 17.5786 5.67157 16.8284C4.92143 16.0783 4.5 15.0609 4.5 14V12" stroke="black" stroke-width="2" stroke-linecap="round" stroke-linejoin="round"/>
<path d="M20.5 12V14C20.5 15.0609 20.0786 16.0783 19.3284 16.8284C18.5783 17.5786 17.5609 18 16.5 18C15.4391 18 14.4217 17.5786 13.6716 16.8284C12.9214 16.0783 12.5 15.0609 12.5 14V12" stroke="black" stroke-width="2" stroke-linecap="round" stroke-linejoin="round"/>
<path d="M28.5 12V14C28.5 15.0609 28.0786 16.0783 27.3284 16.8284C26.5783 17.5786 25.5609 18 24.5 18C23.4391 18 22.4217 17.5786 21.6716 16.8284C20.9214 16.0783 20.5 15.0609 20.5 14V12" stroke="black" stroke-width="2" stroke-linecap="round" stroke-linejoin="round"/>
</svg>
