<svg width="16" height="16" viewBox="0 0 16 16" fill="none" xmlns="http://www.w3.org/2000/svg">
<path d="M12 12H14.0001V14.0001H12V12Z" fill="#1A1A1A"/>
<path d="M8.66677 6.0003H9.99919V4H6.00098V6.0003H8.66677Z" fill="#1A1A1A"/>
<path d="M7 1.00016V2.00042H9.00012V0H7V1.00016Z" fill="#1A1A1A"/>
<path d="M2 2H4.00012V4.00012H2V2Z" fill="#1A1A1A"/>
<path d="M1.99994 9.0003V7H0V9.0003H1.99994Z" fill="#1A1A1A"/>
<path d="M12 7.33353V6H4V10H12V7.33353Z" fill="#1A1A1A"/>
<path d="M2 12H4.00012V14.0001H2V12Z" fill="#1A1A1A"/>
<path d="M7.33242 10H6V11.9996H9.99821V10H7.33242Z" fill="#1A1A1A"/>
<path d="M6.99902 15.0001V15.9999H8.99914V14H6.99902V15.0001Z" fill="#1A1A1A"/>
<path d="M14 7V9.0003H15.9999V7H14Z" fill="#1A1A1A"/>
<path d="M12 2H14.0001V4.00012H12V2Z" fill="#1A1A1A"/>
</svg>
