<svg width="33" height="32" viewBox="0 0 33 32" fill="none" xmlns="http://www.w3.org/2000/svg">
<path d="M10.0254 16.525L19.5254 5.025L27.5004 5L27.4754 12.975L15.9754 22.475" stroke="black" stroke-width="2" stroke-linecap="round" stroke-linejoin="round"/>
<path d="M13 19.5L20.5 12" stroke="black" stroke-width="2" stroke-linecap="round" stroke-linejoin="round"/>
<path d="M10.7627 24.6874L7.02524 28.4249C6.83777 28.6119 6.58379 28.7169 6.31899 28.7169C6.05419 28.7169 5.80021 28.6119 5.61274 28.4249L4.07524 26.8874C3.88823 26.6999 3.7832 26.4459 3.7832 26.1811C3.7832 25.9163 3.88823 25.6624 4.07524 25.4749L7.81274 21.7374C7.90723 21.6443 7.98226 21.5334 8.03348 21.4111C8.08469 21.2888 8.11107 21.1575 8.11107 21.0249C8.11107 20.8923 8.08469 20.761 8.03348 20.6387C7.98226 20.5164 7.90723 20.4054 7.81274 20.3124L5.21274 17.7124C5.11826 17.6193 5.04322 17.5084 4.99201 17.3861C4.94079 17.2638 4.91441 17.1325 4.91441 16.9999C4.91441 16.8673 4.94079 16.736 4.99201 16.6137C5.04322 16.4914 5.11826 16.3804 5.21274 16.2874L6.78774 14.7124C6.88079 14.6179 6.9917 14.5429 7.11402 14.4917C7.23634 14.4404 7.36763 14.4141 7.50024 14.4141C7.63285 14.4141 7.76414 14.4404 7.88646 14.4917C8.00878 14.5429 8.11969 14.6179 8.21274 14.7124L17.7877 24.2874C17.8822 24.3804 17.9573 24.4914 18.0085 24.6137C18.0597 24.736 18.0861 24.8673 18.0861 24.9999C18.0861 25.1325 18.0597 25.2638 18.0085 25.3861C17.9573 25.5084 17.8822 25.6193 17.7877 25.7124L16.2127 27.2874C16.1197 27.3819 16.0088 27.4569 15.8865 27.5081C15.7641 27.5593 15.6329 27.5857 15.5002 27.5857C15.3676 27.5857 15.2363 27.5593 15.114 27.5081C14.9917 27.4569 14.8808 27.3819 14.7877 27.2874L12.1877 24.6874C12.0947 24.5929 11.9838 24.5179 11.8615 24.4667C11.7391 24.4154 11.6079 24.3891 11.4752 24.3891C11.3426 24.3891 11.2113 24.4154 11.089 24.4667C10.9667 24.5179 10.8558 24.5929 10.7627 24.6874Z" stroke="black" stroke-width="2" stroke-linecap="round" stroke-linejoin="round"/>
</svg>
