<svg width="24" height="24" viewBox="0 0 24 24" fill="none" xmlns="http://www.w3.org/2000/svg">
<path d="M6 21H22V3H2V21H6Z" fill="#BA67E4"/>
<path d="M6 3H22V1H2V3H6Z" fill="#1A1A1A"/>
<path d="M18 21H2V23H22V21H18Z" fill="#1A1A1A"/>
<path d="M12 11.0037V15.0038H14.0002V9.00391H12V11.0037Z" fill="#1A1A1A"/>
<path d="M16 11.6705V13.0038H20.0002V11.0039H16V11.6705Z" fill="#1A1A1A"/>
<path d="M14 7.67048V9.00376H22.0002V7.00391H14V7.67048Z" fill="#1A1A1A"/>
<path d="M14 15.6705V17.0038H22.0002V15.0039H14V15.6705Z" fill="#1A1A1A"/>
<path fill-rule="evenodd" clip-rule="evenodd" d="M12 3V5H10V7H8V9V11V13V15V17H9.2H10V19H12V21H14H22V19V17H14V15H12V13V11V9H14V7H22V5V3H12Z" fill="#D480FF"/>
<path fill-rule="evenodd" clip-rule="evenodd" d="M14 15V10.9999V9H16H22V11V13V15H16H14ZM16 13H20V11.6666V11H16V13Z" fill="#E5B2FF"/>
<path d="M2 15.8572V3H0V21H2V15.8572Z" fill="#1A1A1A"/>
<path d="M24 15.8572V3H22V21H24V15.8572Z" fill="#1A1A1A"/>
</svg>
