<svg width="32" height="32" viewBox="0 0 32 32" fill="none" xmlns="http://www.w3.org/2000/svg">
<path d="M8.8 25H28V7H4V25H8.8Z" fill="#F5C13D"/>
<path d="M8.8 7H28V5H4V7H8.8Z" fill="#1A1A1A"/>
<path d="M23.2 25H4V27H28V25H23.2Z" fill="#1A1A1A"/>
<path d="M18 15.0037V19.0038H20.0002V13.0039H18V15.0037Z" fill="#1A1A1A"/>
<path d="M22 15.6705V17.0038H26.0002V15.0039H22V15.6705Z" fill="#1A1A1A"/>
<path d="M20 11.6705V13.0038H28.0002V11.0039H20V11.6705Z" fill="#1A1A1A"/>
<path d="M20 19.6705V21.0038H28.0002V19.0039H20V19.6705Z" fill="#1A1A1A"/>
<path fill-rule="evenodd" clip-rule="evenodd" d="M18 7V9H16V11H14V13V15V17V19V21H15.2H16V23H18V25H20H28V23V21H20V19H18V17V15V13H20V11H28V9V7H18Z" fill="#FFD466"/>
<path fill-rule="evenodd" clip-rule="evenodd" d="M20 19V14.9999V13H22H28V15V17V19H22H20ZM22 17H26V15.6666V15H22V17Z" fill="#FFE299"/>
<path d="M30 19.8572V7H28V25H30V19.8572Z" fill="#1A1A1A"/>
<path d="M4 19.8572V7H2V25H4V19.8572Z" fill="#1A1A1A"/>
</svg>
