<svg width="16" height="16" viewBox="0 0 16 16" fill="none" xmlns="http://www.w3.org/2000/svg">
<g clip-path="url(#clip0_3979_119844)">
<path d="M1 2H3.00012V14.0001H1V2Z" fill="#1A1A1A"/>
<path d="M13 2H15.0001V14.0001H13V2Z" fill="#1A1A1A"/>
<path d="M3 0H13.0001V2.00012H3V0Z" fill="#1A1A1A"/>
<path d="M3 2H13.0001V4.00012H3V2Z" fill="#1A1A1A"/>
<path d="M3 6H13.0001V8.00012H3V6Z" fill="#1A1A1A"/>
<path d="M3 12H13.0001V14.0001H3V12Z" fill="#1A1A1A"/>
<path d="M3 4H7V6H3V4Z" fill="#1A1A1A"/>
<path d="M3 8H7V10H3V8Z" fill="#1A1A1A"/>
<path d="M3 10H7V12H3V10Z" fill="#1A1A1A"/>
<path d="M9 4H13V6H9V4Z" fill="#1A1A1A"/>
<path d="M9 8H13V10H9V8Z" fill="#1A1A1A"/>
<path d="M9 10H13V12H9V10Z" fill="#1A1A1A"/>
<path d="M3 14H13.0001V16.0001H3V14Z" fill="#1A1A1A"/>
</g>
<defs>
<clipPath id="clip0_3979_119844">
<rect width="16" height="16" fill="white"/>
</clipPath>
</defs>
</svg>
