<svg width="16" height="16" viewBox="0 0 16 16" fill="none" xmlns="http://www.w3.org/2000/svg">
<g clip-path="url(#clip0_2518_32025)">
<path d="M4.33349 14H5V6H3V14H4.33349Z" fill="#1A1A1A"/>
<path d="M12.3335 14H13V6H11V14H12.3335Z" fill="#1A1A1A"/>
<path d="M8.33349 14H9V6H7V14H8.33349Z" fill="#1A1A1A"/>
<path d="M1 4H15.0001V6.00012H1V4Z" fill="#1A1A1A"/>
<path d="M5 2H7V4H5V2Z" fill="#1A1A1A"/>
<path d="M9 2H11V4H9V2Z" fill="#1A1A1A"/>
<path d="M9 0H11V2H9V0Z" fill="#1A1A1A"/>
<path d="M7 0H9V2H7V0Z" fill="#1A1A1A"/>
<path d="M3 14H13.0001V16.0001H3V14Z" fill="#1A1A1A"/>
</g>
<defs>
<clipPath id="clip0_2518_32025">
<rect width="16" height="16" fill="white"/>
</clipPath>
</defs>
</svg>
